<?xml version="1.0" standalone="no"?>
<!DOCTYPE svg PUBLIC "-//W3C//DTD SVG 20010904//EN"
 "http://www.w3.org/TR/2001/REC-SVG-20010904/DTD/svg10.dtd">
<svg version="1.0" xmlns="http://www.w3.org/2000/svg"
 width="260.000000pt" height="260.000000pt" viewBox="0 0 260.000000 260.000000"
 preserveAspectRatio="xMidYMid meet">
<metadata>
Created by potrace 1.11, written by Peter Selinger 2001-2013
</metadata>
<g transform="translate(0.000000,260.000000) scale(0.100000,-0.100000)"
fill="#000000" stroke="none">
<path d="M0 1595 l0 -1005 95 0 95 0 0 -44 0 -45 -47 -3 -48 -3 -3 -48 -3 -47
-45 0 -44 0 0 -200 0 -200 1300 0 1300 0 0 1300 0 1300 -1300 0 -1300 0 0
-1005z m1890 555 l0 -50 50 0 50 0 0 -300 0 -300 -200 0 -200 0 0 50 0 50 -50
0 -50 0 0 50 0 50 -50 0 -50 0 0 50 0 50 -100 0 -100 0 0 -50 0 -50 -50 0 -50
0 0 -199 0 -199 -100 -7 -100 -7 0 -44 0 -43 48 -3 47 -3 3 -203 2 -202 50 0
50 0 0 -50 0 -50 50 0 50 0 0 -50 0 -50 -500 0 -500 0 0 49 0 50 -47 3 -48 3
0 700 0 700 48 3 47 3 0 50 0 49 850 0 850 0 0 -50z m-500 -510 l0 -50 50 0
50 0 0 -50 0 -50 50 0 50 0 0 -50 0 -50 203 2 202 3 -1 47 -2 47 52 3 51 3 3
47 3 47 47 3 47 3 3 48 3 47 95 0 94 0 0 -200 0 -200 50 0 50 0 0 -244 0 -245
-47 -3 -48 -3 -3 -47 -3 -48 -50 0 -49 0 0 -50 0 -50 -494 0 -495 0 -3 48 -3
47 -47 3 -47 3 -3 47 -3 47 -52 3 -53 3 0 244 0 244 53 3 52 3 3 198 2 197 95
0 95 0 0 -50z m-700 -1195 l0 -45 -100 0 -100 0 0 45 0 45 100 0 100 0 0 -45z
m900 0 l0 -45 -100 0 -100 0 0 38 c0 21 3 42 7 45 3 4 48 7 100 7 l93 0 0 -45z
m500 0 l0 -45 -95 0 -95 0 0 45 0 45 95 0 95 0 0 -45z"/>
<path d="M895 1992 c-3 -3 -5 -25 -5 -49 l0 -43 51 0 50 0 -3 46 -3 47 -42 2
c-23 1 -45 0 -48 -3z"/>
<path d="M1195 1992 c-3 -3 -5 -25 -5 -49 l0 -43 51 0 50 0 -3 46 -3 47 -42 2
c-23 1 -45 0 -48 -3z"/>
<path d="M390 1845 l0 -45 50 0 50 0 0 45 0 45 -50 0 -50 0 0 -45z"/>
<path d="M1590 1745 l0 -45 50 0 50 0 0 45 0 45 -50 0 -50 0 0 -45z"/>
<path d="M790 1545 l0 -45 50 0 50 0 0 45 0 45 -50 0 -50 0 0 -45z"/>
<path d="M490 1345 l0 -45 50 0 50 0 0 45 0 45 -50 0 -50 0 0 -45z"/>
<path d="M290 1145 l0 -45 50 0 50 0 0 45 0 45 -50 0 -50 0 0 -45z"/>
<path d="M690 945 l0 -45 50 0 50 0 0 45 0 45 -50 0 -50 0 0 -45z"/>
<path d="M392 844 l3 -47 48 -1 47 -1 0 48 0 47 -51 0 -50 0 3 -46z"/>
<path d="M1490 1146 l0 -56 -50 0 -50 0 0 -50 0 -51 103 3 102 3 0 100 0 100
-52 3 -53 3 0 -55z"/>
<path d="M2190 1146 l0 -56 -50 0 -50 0 0 -50 0 -51 103 3 102 3 0 100 0 100
-52 3 -53 3 0 -55z"/>
<path d="M1890 1045 l0 -55 48 0 c27 0 51 2 53 4 2 2 2 27 1 55 l-4 51 -49 0
-49 0 0 -55z"/>
<path d="M1490 795 l0 -105 353 2 352 3 0 100 0 100 -52 3 -53 3 0 -50 0 -51
-97 0 -98 0 0 47 0 48 -52 3 -53 3 0 -50 0 -51 -97 0 -98 0 0 47 0 48 -52 3
-53 3 0 -106z"/>
</g>
</svg>
